<mxfile host="Electron" agent="Mozilla/5.0 (Windows NT 10.0; Win64; x64) AppleWebKit/537.36 (KHTML, like Gecko) draw.io/26.0.15 Chrome/132.0.6834.196 Electron/34.2.0 Safari/537.36" version="26.0.15">
  <diagram name="Page-1" id="SzFKs4SyFn3cnaHj01Sm">
    <mxGraphModel dx="654" dy="526" grid="1" gridSize="10" guides="1" tooltips="1" connect="1" arrows="1" fold="1" page="1" pageScale="1" pageWidth="850" pageHeight="1100" math="0" shadow="0">
      <root>
        <mxCell id="0" />
        <mxCell id="1" parent="0" />
        <mxCell id="svZ8bz47B9wXD7Bzgr6--1" value="Diagram Activity&amp;nbsp; Admin Cetak Hasil Hitung VIKOR" style="swimlane;whiteSpace=wrap;html=1;" vertex="1" parent="1">
          <mxGeometry x="60" y="20" width="430" height="680" as="geometry" />
        </mxCell>
        <mxCell id="svZ8bz47B9wXD7Bzgr6--2" style="edgeStyle=orthogonalEdgeStyle;rounded=0;orthogonalLoop=1;jettySize=auto;html=1;entryX=0;entryY=0.5;entryDx=0;entryDy=0;" edge="1" parent="svZ8bz47B9wXD7Bzgr6--1" source="svZ8bz47B9wXD7Bzgr6--3" target="svZ8bz47B9wXD7Bzgr6--9">
          <mxGeometry relative="1" as="geometry" />
        </mxCell>
        <mxCell id="svZ8bz47B9wXD7Bzgr6--3" value="Menampilkan Data&lt;div&gt;Hasil Perhitungan&lt;/div&gt;" style="rounded=0;whiteSpace=wrap;html=1;" vertex="1" parent="svZ8bz47B9wXD7Bzgr6--1">
          <mxGeometry x="110" y="210" width="120" height="60" as="geometry" />
        </mxCell>
        <mxCell id="svZ8bz47B9wXD7Bzgr6--4" style="edgeStyle=orthogonalEdgeStyle;rounded=0;orthogonalLoop=1;jettySize=auto;html=1;entryX=0.5;entryY=1;entryDx=0;entryDy=0;" edge="1" parent="svZ8bz47B9wXD7Bzgr6--1" source="svZ8bz47B9wXD7Bzgr6--5" target="svZ8bz47B9wXD7Bzgr6--16">
          <mxGeometry relative="1" as="geometry" />
        </mxCell>
        <mxCell id="svZ8bz47B9wXD7Bzgr6--5" value="Database" style="rounded=0;whiteSpace=wrap;html=1;" vertex="1" parent="svZ8bz47B9wXD7Bzgr6--1">
          <mxGeometry x="110" y="470" width="120" height="60" as="geometry" />
        </mxCell>
        <mxCell id="svZ8bz47B9wXD7Bzgr6--6" style="edgeStyle=orthogonalEdgeStyle;rounded=0;orthogonalLoop=1;jettySize=auto;html=1;entryX=0.5;entryY=0;entryDx=0;entryDy=0;exitX=0.75;exitY=1;exitDx=0;exitDy=0;" edge="1" parent="svZ8bz47B9wXD7Bzgr6--1" source="svZ8bz47B9wXD7Bzgr6--7" target="svZ8bz47B9wXD7Bzgr6--3">
          <mxGeometry relative="1" as="geometry">
            <Array as="points">
              <mxPoint x="290" y="180" />
              <mxPoint x="170" y="180" />
            </Array>
          </mxGeometry>
        </mxCell>
        <mxCell id="svZ8bz47B9wXD7Bzgr6--7" value="Cetak Hasil Perhitungan Vikor" style="rounded=0;whiteSpace=wrap;html=1;" vertex="1" parent="svZ8bz47B9wXD7Bzgr6--1">
          <mxGeometry x="200" y="45" width="120" height="60" as="geometry" />
        </mxCell>
        <mxCell id="svZ8bz47B9wXD7Bzgr6--36" style="edgeStyle=orthogonalEdgeStyle;rounded=0;orthogonalLoop=1;jettySize=auto;html=1;entryX=0.5;entryY=0;entryDx=0;entryDy=0;" edge="1" parent="svZ8bz47B9wXD7Bzgr6--1" source="svZ8bz47B9wXD7Bzgr6--9" target="svZ8bz47B9wXD7Bzgr6--30">
          <mxGeometry relative="1" as="geometry" />
        </mxCell>
        <mxCell id="svZ8bz47B9wXD7Bzgr6--9" value="Menampilkan&lt;div&gt;&lt;br&gt;&lt;div&gt;Alternatif&lt;/div&gt;&lt;/div&gt;&lt;div&gt;Nilai S&lt;/div&gt;&lt;div&gt;Nilai R&lt;/div&gt;&lt;div&gt;Nilai indeks Q&lt;/div&gt;&lt;div&gt;Rangking&lt;/div&gt;" style="rounded=0;whiteSpace=wrap;html=1;" vertex="1" parent="svZ8bz47B9wXD7Bzgr6--1">
          <mxGeometry x="270" y="210" width="120" height="170" as="geometry" />
        </mxCell>
        <mxCell id="svZ8bz47B9wXD7Bzgr6--10" value="&lt;span style=&quot;white-space: pre;&quot;&gt;&#x9;&lt;span style=&quot;white-space: pre;&quot;&gt;&#x9;&lt;/span&gt;&lt;/span&gt;&lt;div&gt;&lt;br&gt;&lt;/div&gt;&lt;div&gt;&lt;br&gt;&lt;/div&gt;&lt;div&gt;&lt;br&gt;&lt;/div&gt;&lt;div&gt;&lt;br&gt;&lt;/div&gt;&lt;div&gt;&lt;br&gt;&lt;/div&gt;&lt;div&gt;&amp;nbsp;START&lt;/div&gt;" style="ellipse;shape=doubleEllipse;whiteSpace=wrap;html=1;aspect=fixed;fillColor=light-dark(#33FF33,var(--ge-dark-color, #121212));" vertex="1" parent="svZ8bz47B9wXD7Bzgr6--1">
          <mxGeometry x="65" y="60" width="30" height="30" as="geometry" />
        </mxCell>
        <mxCell id="svZ8bz47B9wXD7Bzgr6--11" style="edgeStyle=orthogonalEdgeStyle;rounded=0;orthogonalLoop=1;jettySize=auto;html=1;entryX=0;entryY=0.5;entryDx=0;entryDy=0;" edge="1" parent="svZ8bz47B9wXD7Bzgr6--1" source="svZ8bz47B9wXD7Bzgr6--10" target="svZ8bz47B9wXD7Bzgr6--7">
          <mxGeometry relative="1" as="geometry" />
        </mxCell>
        <mxCell id="svZ8bz47B9wXD7Bzgr6--12" style="edgeStyle=orthogonalEdgeStyle;rounded=0;orthogonalLoop=1;jettySize=auto;html=1;entryX=0.5;entryY=1;entryDx=0;entryDy=0;" edge="1" parent="svZ8bz47B9wXD7Bzgr6--1" source="svZ8bz47B9wXD7Bzgr6--16" target="svZ8bz47B9wXD7Bzgr6--18">
          <mxGeometry relative="1" as="geometry" />
        </mxCell>
        <mxCell id="svZ8bz47B9wXD7Bzgr6--13" value="No" style="edgeLabel;html=1;align=center;verticalAlign=middle;resizable=0;points=[];" vertex="1" connectable="0" parent="svZ8bz47B9wXD7Bzgr6--12">
          <mxGeometry x="-0.5627" y="-3" relative="1" as="geometry">
            <mxPoint x="-9" y="3" as="offset" />
          </mxGeometry>
        </mxCell>
        <mxCell id="svZ8bz47B9wXD7Bzgr6--14" style="edgeStyle=orthogonalEdgeStyle;rounded=0;orthogonalLoop=1;jettySize=auto;html=1;entryX=0.5;entryY=1;entryDx=0;entryDy=0;" edge="1" parent="svZ8bz47B9wXD7Bzgr6--1" source="svZ8bz47B9wXD7Bzgr6--16" target="svZ8bz47B9wXD7Bzgr6--3">
          <mxGeometry relative="1" as="geometry" />
        </mxCell>
        <mxCell id="svZ8bz47B9wXD7Bzgr6--15" value="Yes" style="edgeLabel;html=1;align=center;verticalAlign=middle;resizable=0;points=[];" vertex="1" connectable="0" parent="svZ8bz47B9wXD7Bzgr6--14">
          <mxGeometry x="-0.2848" y="-1" relative="1" as="geometry">
            <mxPoint as="offset" />
          </mxGeometry>
        </mxCell>
        <mxCell id="svZ8bz47B9wXD7Bzgr6--16" value="" style="rhombus;whiteSpace=wrap;html=1;" vertex="1" parent="svZ8bz47B9wXD7Bzgr6--1">
          <mxGeometry x="145" y="375" width="50" height="30" as="geometry" />
        </mxCell>
        <mxCell id="svZ8bz47B9wXD7Bzgr6--17" style="edgeStyle=orthogonalEdgeStyle;rounded=0;orthogonalLoop=1;jettySize=auto;html=1;entryX=0.25;entryY=1;entryDx=0;entryDy=0;" edge="1" parent="svZ8bz47B9wXD7Bzgr6--1" source="svZ8bz47B9wXD7Bzgr6--18" target="svZ8bz47B9wXD7Bzgr6--7">
          <mxGeometry relative="1" as="geometry">
            <Array as="points">
              <mxPoint x="55" y="150" />
              <mxPoint x="230" y="150" />
            </Array>
          </mxGeometry>
        </mxCell>
        <mxCell id="svZ8bz47B9wXD7Bzgr6--18" value="Belum Ada Data" style="rounded=1;whiteSpace=wrap;html=1;" vertex="1" parent="svZ8bz47B9wXD7Bzgr6--1">
          <mxGeometry x="15" y="330" width="80" height="30" as="geometry" />
        </mxCell>
        <mxCell id="svZ8bz47B9wXD7Bzgr6--37" style="edgeStyle=orthogonalEdgeStyle;rounded=0;orthogonalLoop=1;jettySize=auto;html=1;entryX=0.5;entryY=0;entryDx=0;entryDy=0;" edge="1" parent="svZ8bz47B9wXD7Bzgr6--1" source="svZ8bz47B9wXD7Bzgr6--30" target="svZ8bz47B9wXD7Bzgr6--32">
          <mxGeometry relative="1" as="geometry" />
        </mxCell>
        <mxCell id="svZ8bz47B9wXD7Bzgr6--30" value="CETAK PDF" style="rounded=1;whiteSpace=wrap;html=1;" vertex="1" parent="svZ8bz47B9wXD7Bzgr6--1">
          <mxGeometry x="280" y="470" width="100" height="40" as="geometry" />
        </mxCell>
        <mxCell id="svZ8bz47B9wXD7Bzgr6--32" value="&lt;span style=&quot;white-space: pre;&quot;&gt;&#x9;&lt;span style=&quot;white-space: pre;&quot;&gt;&#x9;&lt;/span&gt;&lt;/span&gt;&lt;div&gt;&lt;br&gt;&lt;/div&gt;&lt;div&gt;&lt;br&gt;&lt;/div&gt;&lt;div&gt;&lt;br&gt;&lt;/div&gt;&lt;div&gt;&lt;br&gt;&lt;/div&gt;&lt;div&gt;&lt;br&gt;&lt;/div&gt;&lt;div&gt;&amp;nbsp;FINISH&lt;/div&gt;" style="ellipse;shape=doubleEllipse;whiteSpace=wrap;html=1;aspect=fixed;fillColor=#f8cecc;strokeColor=#000000;" vertex="1" parent="svZ8bz47B9wXD7Bzgr6--1">
          <mxGeometry x="315" y="570" width="30" height="30" as="geometry" />
        </mxCell>
      </root>
    </mxGraphModel>
  </diagram>
</mxfile>
